<svg xmlns="http://www.w3.org/2000/svg" width="128" height="128" viewBox="0 0 128 128" fill="#0891b2">
  <title>Interaction</title>
  <path d="M114,8.75H14A9.761,9.761,0,0,0,4.25,18.5v77A10.762,10.762,0,0,0,15,106.25H51.631c.6.854,1.176,1.608,1.67,2.218,5.815,7.179,12.65,10.78,20.417,10.779a32.237,32.237,0,0,0,12.389-2.725A20.313,20.313,0,0,0,96.729,106.25H113A10.762,10.762,0,0,0,123.75,95.5v-77A9.761,9.761,0,0,0,114,8.75Zm6.25,9.75V32.183H52.888l8.956-18.935a1.745,1.745,0,0,0,.149-1H114A6.257,6.257,0,0,1,120.25,18.5ZM14,12.25H58.444L49.016,32.183H7.75V18.5A6.257,6.257,0,0,1,14,12.25ZM84.76,113.292c-11.595,4.837-20.991,2.538-28.739-7.027-1.454-1.794-4.865-6.395-5.155-10.371a6.418,6.418,0,0,1,2.677-5.919l3.826,9.012a1.75,1.75,0,1,0,3.223-1.367L47.2,66.076a3.16,3.16,0,1,1,5.817-2.47l9.912,23.351a1.75,1.75,0,0,0,3.222-1.367l-3.176-7.482a2.8,2.8,0,0,1,5.149-2.181l4.225,9.951a1.75,1.75,0,1,0,3.222-1.368l-4.224-9.951a2.8,2.8,0,0,1,3.622-3.685,2.77,2.77,0,0,1,1.525,1.5l4.225,9.951a1.75,1.75,0,1,0,3.222-1.368l-4.224-9.951a2.8,2.8,0,0,1,1.745-3.763A2.926,2.926,0,0,1,84.942,69L93.65,89.517a18.706,18.706,0,0,1,.28,14.461A16.9,16.9,0,0,1,84.76,113.292ZM113,102.75H98.006a22.415,22.415,0,0,0-1.133-14.6L88.165,67.634a6.449,6.449,0,0,0-7.757-3.728,6.321,6.321,0,0,0-3.834,3.373c-.063.136-.113.276-.165.416-.045-.019-.083-.048-.128-.067a6.285,6.285,0,0,0-8.242,3.62c-.045-.019-.083-.048-.128-.066a6.215,6.215,0,0,0-7.126,1.762L56.241,62.239a6.66,6.66,0,0,0-12.262,5.2L52.154,86.7a9.871,9.871,0,0,0-4.778,9.447,17.374,17.374,0,0,0,2.111,6.6H15A7.258,7.258,0,0,1,7.75,95.5V35.683h112.5V95.5A7.258,7.258,0,0,1,113,102.75Z"/>
  <path d="M21.57,28.966a5.75,5.75,0,1,0-5.75-5.75A5.756,5.756,0,0,0,21.57,28.966Zm0-8a2.25,2.25,0,1,1-2.25,2.25A2.253,2.253,0,0,1,21.57,20.966Z"/>
  <path d="M37.626,28.966a5.75,5.75,0,1,0-5.75-5.75A5.756,5.756,0,0,0,37.626,28.966Zm0-8a2.25,2.25,0,1,1-2.25,2.25A2.253,2.253,0,0,1,37.626,20.966Z"/>
  <path d="M67.522,24.966h44.745a1.75,1.75,0,0,0,0-3.5H67.522a1.75,1.75,0,0,0,0,3.5Z"/>
  <path d="M55.251,52.064a13.752,13.752,0,0,0-17.81,18.125,1.75,1.75,0,1,0,3.221-1.368,10.252,10.252,0,0,1,18.874-8.012,1.75,1.75,0,0,0,3.223-1.367A13.667,13.667,0,0,0,55.251,52.064Z"/>
  <path d="M41.955,45.628A20.869,20.869,0,0,0,30.911,72.96a1.75,1.75,0,0,0,3.223-1.367A17.344,17.344,0,1,1,66.065,58.039a1.751,1.751,0,0,0,3.223-1.369A20.871,20.871,0,0,0,41.955,45.628Z"/>
</svg>
