<svg xmlns="http://www.w3.org/2000/svg" width="128" height="128" viewBox="0 0 128 128" fill="#0891b2">
  <title>Checklist</title>
  <path d="M114,15.25H14A9.761,9.761,0,0,0,4.25,25v77A10.762,10.762,0,0,0,15,112.75h98A10.762,10.762,0,0,0,123.75,102V25A9.761,9.761,0,0,0,114,15.25ZM120.25,25V36.683H52.888L61.37,18.75H114A6.257,6.257,0,0,1,120.25,25ZM14,18.75H57.5L49.016,36.683H7.75V25A6.257,6.257,0,0,1,14,18.75Zm99,90.5H15A7.258,7.258,0,0,1,7.75,102V40.183h112.5V102A7.258,7.258,0,0,1,113,109.25Z"/>
  <path d="M21.57,33.467a5.75,5.75,0,1,0-5.75-5.75A5.756,5.756,0,0,0,21.57,33.467Zm0-8a2.25,2.25,0,1,1-2.25,2.25A2.253,2.253,0,0,1,21.57,25.467Z"/>
  <path d="M37.626,33.467a5.75,5.75,0,1,0-5.75-5.75A5.756,5.756,0,0,0,37.626,33.467Zm0-8a2.25,2.25,0,1,1-2.25,2.25A2.253,2.253,0,0,1,37.626,25.467Z"/>
  <path d="M67.522,29.467h44.745a1.75,1.75,0,0,0,0-3.5H67.522a1.75,1.75,0,0,0,0,3.5Z"/>
  <path d="M21.57,70.1H41.433a1.751,1.751,0,0,0,1.75-1.75V60.986a1.75,1.75,0,0,0-3.5,0V66.6H23.32V50.234H33.672a1.75,1.75,0,0,0,0-3.5H21.57a1.751,1.751,0,0,0-1.75,1.75V68.348A1.751,1.751,0,0,0,21.57,70.1Z"/>
  <path d="M44.2,47.071a1.75,1.75,0,0,0-2.445.381L32.586,60l-4.654-4.3a1.75,1.75,0,1,0-2.376,2.571l6.1,5.635a1.751,1.751,0,0,0,1.188.465c.056,0,.113,0,.169-.008a1.748,1.748,0,0,0,1.244-.71L44.58,49.517A1.75,1.75,0,0,0,44.2,47.071Z"/>
  <path d="M106.222,51.666H64a1.75,1.75,0,0,0,0,3.5h42.222a1.75,1.75,0,0,0,0-3.5Z"/>
  <path d="M106.222,61.666H64a1.75,1.75,0,0,0,0,3.5h42.222a1.75,1.75,0,0,0,0-3.5Z"/>
  <path d="M41.433,91.838a1.75,1.75,0,0,0-1.75,1.75V99.2H23.32V82.836H33.672a1.75,1.75,0,0,0,0-3.5H21.57a1.75,1.75,0,0,0-1.75,1.75v19.862a1.75,1.75,0,0,0,1.75,1.75H41.433a1.75,1.75,0,0,0,1.75-1.75v-7.36A1.75,1.75,0,0,0,41.433,91.838Z"/>
  <path d="M44.2,79.673a1.749,1.749,0,0,0-2.445.381L32.586,92.6l-4.654-4.3a1.75,1.75,0,1,0-2.376,2.57l6.1,5.636a1.751,1.751,0,0,0,1.188.465c.056,0,.113,0,.169-.008a1.754,1.754,0,0,0,1.244-.71L44.58,82.118A1.749,1.749,0,0,0,44.2,79.673Z"/>
  <path d="M106.222,84.268H64a1.75,1.75,0,0,0,0,3.5h42.222a1.75,1.75,0,1,0,0-3.5Z"/>
  <path d="M106.222,94.268H64a1.75,1.75,0,0,0,0,3.5h42.222a1.75,1.75,0,1,0,0-3.5Z"/>
</svg>
