<svg xmlns="http://www.w3.org/2000/svg" version="1.1" xmlns:xlink="http://www.w3.org/1999/xlink" xmlns:svgjs="http://svgjs.com/svgjs" width="1000" height="1000"><rect width="1000" height="1000" rx="150" ry="150" fill="#0f172a"></rect><g transform="matrix(3.673469387755102,0,0,3.673469387755102,50,189.59183673469386)"><svg xmlns="http://www.w3.org/2000/svg" version="1.1" xmlns:xlink="http://www.w3.org/1999/xlink" xmlns:svgjs="http://svgjs.com/svgjs" width="245" height="169"><svg class="h-12" viewBox="0 0 245 169" fill="none" xmlns="http://www.w3.org/2000/svg">
                <rect width="245" height="169"></rect>
                <path id="Ta" d="M96.061 90C93.6717 90 91.709 89.2747 90.173 87.824C88.637 86.288 87.869 84.4107 87.869 82.192V7.952H104.509V82.192C104.509 84.4107 103.698 86.288 102.077 87.824C100.541 89.2747 98.5357 90 96.061 90ZM67.773 15.12C65.5543 15.12 63.677 14.4373 62.141 13.072C60.6903 11.7067 59.965 9.91466 59.965 7.696C59.965 5.47733 60.6903 3.728 62.141 2.448C63.677 1.08266 65.5543 0.399994 67.773 0.399994H124.605C126.824 0.399994 128.658 1.08266 130.109 2.448C131.645 3.81333 132.413 5.60533 132.413 7.824C132.413 10.0427 131.645 11.8347 130.109 13.2C128.658 14.48 126.824 15.12 124.605 15.12H67.773ZM187.884 20.24C190.103 20.24 191.937 20.9653 193.388 22.416C194.839 23.8667 195.564 25.744 195.564 28.048V82.192C195.564 84.4107 194.839 86.288 193.388 87.824C191.937 89.2747 190.103 90 187.884 90C185.665 90 183.831 89.2747 182.38 87.824C180.929 86.288 180.204 84.4107 180.204 82.192V75.92L183.02 77.072C183.02 78.1813 182.423 79.5467 181.228 81.168C180.033 82.704 178.412 84.24 176.364 85.776C174.316 87.312 171.884 88.6347 169.068 89.744C166.337 90.768 163.351 91.28 160.108 91.28C154.22 91.28 148.887 89.7867 144.108 86.8C139.329 83.728 135.532 79.5467 132.716 74.256C129.985 68.88 128.62 62.736 128.62 55.824C128.62 48.8267 129.985 42.6827 132.716 37.392C135.532 32.016 139.287 27.8347 143.98 24.848C148.673 21.776 153.879 20.24 159.596 20.24C163.265 20.24 166.636 20.7947 169.708 21.904C172.78 23.0133 175.425 24.4213 177.644 26.128C179.948 27.8347 181.697 29.584 182.892 31.376C184.172 33.0827 184.812 34.5333 184.812 35.728L180.204 37.392V28.048C180.204 25.8293 180.929 23.9947 182.38 22.544C183.831 21.008 185.665 20.24 187.884 20.24ZM162.028 77.2C165.783 77.2 169.068 76.2613 171.884 74.384C174.7 72.5067 176.876 69.9467 178.412 66.704C180.033 63.4613 180.844 59.8347 180.844 55.824C180.844 51.728 180.033 48.0587 178.412 44.816C176.876 41.5733 174.7 39.0133 171.884 37.136C169.068 35.2587 165.783 34.32 162.028 34.32C158.359 34.32 155.116 35.2587 152.3 37.136C149.484 39.0133 147.265 41.5733 145.644 44.816C144.108 48.0587 143.34 51.728 143.34 55.824C143.34 59.8347 144.108 63.4613 145.644 66.704C147.265 69.9467 149.484 72.5067 152.3 74.384C155.116 76.2613 158.359 77.2 162.028 77.2Z" fill="#0891b2"></path>
                <path id="Test" d="M36.2485 167C33.8592 167 31.8965 166.275 30.3605 164.824C28.8245 163.288 28.0565 161.411 28.0565 159.192V84.952H44.6965V159.192C44.6965 161.411 43.8858 163.288 42.2645 164.824C40.7285 166.275 38.7232 167 36.2485 167ZM7.9605 92.12C5.74183 92.12 3.8645 91.4373 2.3285 90.072C0.877834 88.7067 0.1525 86.9147 0.1525 84.696C0.1525 82.4773 0.877834 80.728 2.3285 79.448C3.8645 78.0827 5.74183 77.4 7.9605 77.4H64.7925C67.0112 77.4 68.8458 78.0827 70.2965 79.448C71.8325 80.8133 72.6005 82.6053 72.6005 84.824C72.6005 87.0427 71.8325 88.8347 70.2965 90.2C68.8458 91.48 67.0112 92.12 64.7925 92.12H7.9605ZM101.639 168.28C94.3852 168.28 88.0705 166.787 82.6945 163.8C77.4038 160.728 73.3078 156.589 70.4065 151.384C67.5905 146.179 66.1825 140.291 66.1825 133.72C66.1825 126.04 67.7185 119.512 70.7905 114.136C73.9478 108.675 78.0438 104.493 83.0785 101.592C88.1132 98.6907 93.4465 97.24 99.0785 97.24C103.431 97.24 107.527 98.136 111.367 99.928C115.292 101.72 118.748 104.195 121.735 107.352C124.721 110.424 127.068 114.008 128.775 118.104C130.567 122.2 131.463 126.552 131.463 131.16C131.377 133.208 130.567 134.872 129.031 136.152C127.495 137.432 125.703 138.072 123.655 138.072H74.7585L70.9185 125.272H117.895L115.079 127.832V124.376C114.908 121.901 114.012 119.683 112.391 117.72C110.855 115.757 108.892 114.221 106.503 113.112C104.199 111.917 101.724 111.32 99.0785 111.32C96.5185 111.32 94.1292 111.661 91.9105 112.344C89.6918 113.027 87.7718 114.179 86.1505 115.8C84.5292 117.421 83.2492 119.597 82.3105 122.328C81.3718 125.059 80.9025 128.515 80.9025 132.696C80.9025 137.304 81.8412 141.229 83.7185 144.472C85.6812 147.629 88.1558 150.061 91.1425 151.768C94.2145 153.389 97.4572 154.2 100.871 154.2C104.028 154.2 106.545 153.944 108.423 153.432C110.3 152.92 111.793 152.323 112.903 151.64C114.097 150.872 115.164 150.232 116.103 149.72C117.639 148.952 119.089 148.568 120.455 148.568C122.332 148.568 123.868 149.208 125.062 150.488C126.343 151.768 126.983 153.261 126.983 154.968C126.983 157.272 125.788 159.363 123.399 161.24C121.18 163.117 118.065 164.781 114.055 166.232C110.044 167.597 105.905 168.28 101.639 168.28ZM140.915 156.376C140.061 155.181 139.677 153.645 139.763 151.768C139.848 149.891 140.957 148.269 143.091 146.904C144.456 146.051 145.907 145.709 147.443 145.88C148.979 145.965 150.472 146.733 151.923 148.184C154.397 150.659 157 152.579 159.731 153.944C162.461 155.309 165.875 155.992 169.971 155.992C171.251 155.907 172.659 155.736 174.194 155.48C175.731 155.139 177.053 154.456 178.163 153.432C179.357 152.323 179.955 150.659 179.955 148.44C179.955 146.563 179.315 145.069 178.035 143.96C176.755 142.851 175.048 141.912 172.915 141.144C170.867 140.376 168.563 139.651 166.003 138.968C163.357 138.2 160.627 137.347 157.811 136.408C155.08 135.469 152.563 134.275 150.259 132.824C147.955 131.288 146.077 129.283 144.627 126.808C143.176 124.333 142.451 121.219 142.451 117.464C142.451 113.197 143.645 109.571 146.035 106.584C148.424 103.597 151.496 101.293 155.251 99.672C159.091 98.0507 163.101 97.24 167.283 97.24C169.928 97.24 172.701 97.5813 175.603 98.264C178.504 98.8613 181.277 99.8853 183.923 101.336C186.568 102.701 188.787 104.536 190.579 106.84C191.517 108.12 192.072 109.656 192.243 111.448C192.413 113.24 191.603 114.861 189.811 116.312C188.531 117.336 187.037 117.805 185.331 117.72C183.624 117.549 182.216 116.952 181.107 115.928C179.656 114.051 177.693 112.557 175.219 111.448C172.829 110.339 170.056 109.784 166.899 109.784C165.619 109.784 164.211 109.955 162.675 110.296C161.224 110.552 159.944 111.192 158.835 112.216C157.725 113.155 157.171 114.691 157.171 116.824C157.171 118.787 157.811 120.365 159.091 121.56C160.371 122.669 162.077 123.608 164.211 124.376C166.429 125.059 168.776 125.741 171.251 126.424C173.811 127.107 176.413 127.917 179.059 128.856C181.704 129.795 184.136 131.032 186.355 132.568C188.573 134.104 190.365 136.109 191.731 138.584C193.096 140.973 193.779 144.045 193.779 147.8C193.779 152.152 192.499 155.864 189.939 158.936C187.379 162.008 184.179 164.355 180.339 165.976C176.499 167.512 172.573 168.28 168.562 168.28C163.528 168.28 158.493 167.427 153.458 165.72C148.424 163.928 144.243 160.813 140.915 156.376ZM207.401 99.8H237.737C239.785 99.8 241.491 100.483 242.857 101.848C244.222 103.213 244.905 104.92 244.905 106.968C244.905 108.931 244.222 110.595 242.857 111.96C241.491 113.24 239.785 113.88 237.737 113.88H207.401C205.353 113.88 203.646 113.197 202.281 111.832C200.915 110.467 200.233 108.76 200.233 106.712C200.233 104.749 200.915 103.128 202.281 101.848C203.646 100.483 205.353 99.8 207.401 99.8ZM221.097 83.8C223.315 83.8 225.107 84.568 226.473 86.104C227.923 87.5547 228.649 89.3893 228.649 91.608V148.568C228.649 149.763 228.862 150.744 229.289 151.512C229.801 152.28 230.441 152.835 231.208 153.176C232.062 153.517 232.958 153.688 233.897 153.688C234.921 153.688 235.859 153.517 236.713 153.176C237.566 152.749 238.547 152.536 239.657 152.536C240.851 152.536 241.918 153.091 242.857 154.2C243.881 155.309 244.393 156.845 244.393 158.808C244.393 161.197 243.07 163.16 240.425 164.696C237.865 166.232 235.091 167 232.104 167C230.313 167 228.307 166.872 226.089 166.616C223.955 166.275 221.907 165.549 219.945 164.44C218.067 163.245 216.488 161.453 215.208 159.064C213.929 156.675 213.289 153.389 213.289 149.208V91.608C213.289 89.3893 214.014 87.5547 215.465 86.104C217.001 84.568 218.878 83.8 221.097 83.8Z" fill="#0891b2"></path>
                </svg></svg></g></svg>